<svg width="28" height="28" viewBox="0 0 28 28" fill="none" xmlns="http://www.w3.org/2000/svg">
<path fill-rule="evenodd" clip-rule="evenodd" d="M19.9503 11.4751C19.9503 16.1558 16.1558 19.9503 11.4751 19.9503C6.79445 19.9503 3 16.1558 3 11.4751C3 6.79445 6.79445 3 11.4751 3C16.1558 3 19.9503 6.79445 19.9503 11.4751ZM18.4621 20.5787C16.5271 22.066 14.1044 22.9503 11.4751 22.9503C5.1376 22.9503 0 17.8127 0 11.4751C0 5.1376 5.1376 0 11.4751 0C17.8127 0 22.9503 5.1376 22.9503 11.4751C22.9503 14.1043 22.0661 16.527 20.5788 18.4619L28.0001 25.8832L25.8833 28L18.4621 20.5787Z" fill="#0581BB"/>
</svg>
