<svg width="22" height="20" viewBox="0 0 22 20" fill="none" xmlns="http://www.w3.org/2000/svg">
<path fill-rule="evenodd" clip-rule="evenodd" d="M19.2929 0.292893C19.6834 -0.0976311 20.3166 -0.0976311 20.7071 0.292893C21.0976 0.683417 21.0976 1.31658 20.7071 1.70711L12.4142 10L20.7071 18.2929C21.0976 18.6834 21.0976 19.3166 20.7071 19.7071C20.3166 20.0976 19.6834 20.0976 19.2929 19.7071L11 11.4142L2.70711 19.7071C2.31658 20.0976 1.68342 20.0976 1.29289 19.7071C0.902369 19.3166 0.902369 18.6834 1.29289 18.2929L9.58579 10L1.29289 1.70711C0.902369 1.31658 0.902369 0.683417 1.29289 0.292893C1.68342 -0.0976311 2.31658 -0.0976311 2.70711 0.292893L11 8.58579L19.2929 0.292893Z" fill="#666666"/>
</svg>
