<svg width="22" height="20" viewBox="0 0 22 20" fill="none" xmlns="http://www.w3.org/2000/svg">
<path fill-rule="evenodd" clip-rule="evenodd" d="M0 1C0 0.447715 0.419138 0 0.93617 0H21.0638C21.5809 0 22 0.447715 22 1C22 1.55228 21.5809 2 21.0638 2H0.93617C0.419138 2 0 1.55228 0 1Z" fill="#666666"/>
<path fill-rule="evenodd" clip-rule="evenodd" d="M0 10C0 9.44772 0.419138 9 0.93617 9H21.0638C21.5809 9 22 9.44772 22 10C22 10.5523 21.5809 11 21.0638 11H0.93617C0.419138 11 0 10.5523 0 10Z" fill="#666666"/>
<path fill-rule="evenodd" clip-rule="evenodd" d="M0 19C0 18.4477 0.419138 18 0.93617 18H21.0638C21.5809 18 22 18.4477 22 19C22 19.5523 21.5809 20 21.0638 20H0.93617C0.419138 20 0 19.5523 0 19Z" fill="#666666"/>
</svg>
